<?xml version="1.0" encoding="UTF-8" standalone="no"?>
<!DOCTYPE svg PUBLIC "-//W3C//DTD SVG 1.1//EN" "http://www.w3.org/Graphics/SVG/1.1/DTD/svg11.dtd">
<svg width="100%" height="100%" viewBox="0 0 48 48" version="1.1" xmlns="http://www.w3.org/2000/svg" xmlns:xlink="http://www.w3.org/1999/xlink" xml:space="preserve" xmlns:serif="http://www.serif.com/" style="fill-rule:evenodd;clip-rule:evenodd;stroke-linejoin:round;stroke-miterlimit:2;">
    <g transform="matrix(0.48,0,0,0.48,0,0)">
        <rect id="Artboard1" x="0" y="0" width="100" height="100" style="fill:none;"/>
        <clipPath id="_clip1">
            <rect id="Artboard11" serif:id="Artboard1" x="0" y="0" width="100" height="100"/>
        </clipPath>
        <g clip-path="url(#_clip1)">
            <g transform="matrix(1.5873,0,0,1.5873,-38.0952,-41.2698)">
                <circle cx="55.5" cy="57.5" r="31.5" style="fill:rgb(157,175,177);"/>
            </g>
            <g transform="matrix(1.41645,0,0,1.41645,-3.18438,-6.64005)">
                <g transform="matrix(65.6142,0,0,65.6142,21,64)">
                    <path d="M0.055,-0.05L0.055,-0.683C0.055,-0.696 0.06,-0.708 0.07,-0.718C0.079,-0.727 0.091,-0.732 0.105,-0.732L0.241,-0.732C0.284,-0.732 0.322,-0.72 0.357,-0.697C0.391,-0.673 0.417,-0.643 0.433,-0.606C0.438,-0.593 0.442,-0.579 0.445,-0.566C0.448,-0.553 0.449,-0.539 0.449,-0.525C0.449,-0.482 0.437,-0.443 0.413,-0.409C0.409,-0.402 0.403,-0.395 0.398,-0.388C0.392,-0.381 0.386,-0.375 0.38,-0.37C0.377,-0.367 0.375,-0.363 0.374,-0.358C0.373,-0.353 0.374,-0.349 0.377,-0.346C0.396,-0.321 0.407,-0.294 0.411,-0.265C0.413,-0.253 0.415,-0.239 0.417,-0.223L0.432,-0.121C0.434,-0.104 0.436,-0.091 0.438,-0.08L0.441,-0.057C0.441,-0.055 0.441,-0.052 0.441,-0.049C0.441,-0.039 0.438,-0.029 0.432,-0.021C0.423,-0.009 0.412,-0.003 0.399,-0.001C0.398,-0 0.395,-0 0.392,-0C0.38,-0 0.369,-0.004 0.36,-0.012C0.351,-0.02 0.345,-0.03 0.343,-0.043C0.343,-0.044 0.342,-0.052 0.339,-0.068C0.337,-0.085 0.334,-0.104 0.332,-0.126C0.329,-0.149 0.325,-0.172 0.322,-0.195C0.319,-0.218 0.316,-0.236 0.314,-0.251C0.311,-0.27 0.302,-0.286 0.288,-0.298C0.273,-0.311 0.257,-0.317 0.238,-0.317L0.172,-0.317C0.167,-0.317 0.162,-0.315 0.159,-0.312C0.156,-0.309 0.154,-0.304 0.154,-0.299L0.154,-0.05C0.154,-0.036 0.149,-0.024 0.139,-0.014C0.13,-0.005 0.118,-0 0.105,-0C0.091,-0 0.079,-0.005 0.07,-0.014C0.06,-0.024 0.055,-0.036 0.055,-0.05ZM0.154,-0.433C0.154,-0.429 0.156,-0.425 0.159,-0.421C0.162,-0.418 0.167,-0.416 0.172,-0.416L0.241,-0.416C0.264,-0.416 0.284,-0.422 0.302,-0.434C0.32,-0.446 0.334,-0.462 0.342,-0.482C0.347,-0.497 0.35,-0.511 0.35,-0.525C0.35,-0.546 0.344,-0.567 0.332,-0.586C0.319,-0.604 0.303,-0.617 0.284,-0.625C0.27,-0.631 0.256,-0.634 0.241,-0.634L0.172,-0.634C0.167,-0.634 0.162,-0.632 0.159,-0.629C0.156,-0.626 0.154,-0.621 0.154,-0.616L0.154,-0.433Z" style="fill:rgb(5,26,29);fill-rule:nonzero;"/>
                </g>
            </g>
        </g>
    </g>
</svg>
